Coordinates
version=1
nRows=29
nColumns=22
inDegrees=yes

Units are S.I. units (second, meters, Newtons, ...)
If the header above contains a line with 'inDegrees', this indicates whether rotational values are in degrees (yes) or radians (no).

endheader
time	pelvis_tilt	pelvis_list	pelvis_rotation	pelvis_tx	pelvis_ty	pelvis_tz	hip_flexion_r	hip_adduction_r	hip_rotation_r	knee_angle_r	ankle_angle_r	subtalar_angle_r	hip_flexion_l	hip_adduction_l	hip_rotation_l	knee_angle_l	ankle_angle_l	subtalar_angle_l	lumbar_extension	lumbar_bending	lumbar_rotation
      0.01000000	      6.38374040	     -2.56593093	      8.09678760	     -1.38641424	      0.95556373	     -0.69107321	     -6.04365456	      4.29803075	    -13.98039177	     -9.50630127	      9.78688659	     -1.10270526	     -2.10450742	     -3.80979599	    -13.29710159	    -17.33854253	     21.20651643	     -9.71136467	    -13.03198475	      3.93926712	     -9.42486436
      0.02000000	      6.39137831	     -2.57592307	      8.11627379	     -1.38639717	      0.95557666	     -0.69108627	     -6.06682673	      4.31694592	    -13.99196472	     -9.47591906	      9.80760631	     -1.11226826	     -2.10551477	     -3.82394496	    -13.27149785	    -17.34628022	     21.16730164	     -9.71964036	    -13.06262367	      3.96017548	     -9.43424810
      0.03000000	      6.38338525	     -2.57323473	      8.12315418	     -1.38635079	      0.95556104	     -0.69111501	     -6.06511039	      4.31414044	    -13.99019816	     -9.47101164	      9.80752054	     -1.11289860	     -2.10163770	     -3.81954737	    -13.27263780	    -17.34137559	     21.16865040	     -9.71958066	    -13.07563264	      3.96392227	     -9.43540144
      0.04000000	      6.37721851	     -2.54724705	      8.14453819	     -1.38627644	      0.95554538	     -0.69119451	     -6.08836015	      4.29261580	    -13.95122062	     -9.43453641	      9.81289727	     -1.11765009	     -2.10215340	     -3.78688368	    -13.24491533	    -17.33876256	     21.17729759	     -9.71877822	    -13.08814265	      3.94607983	     -9.46581867
      0.05000000	      6.36828721	     -2.54307827	      8.15861731	     -1.38619908	      0.95552174	     -0.69127003	     -6.08947545	      4.28821501	    -13.94642613	     -9.42981491	      9.81424998	     -1.11809612	     -2.09989335	     -3.77869681	    -13.24606242	    -17.33187378	     21.17721464	     -9.71910138	    -13.09770455	      3.95484053	     -9.46376485
      0.06000000	      6.35436149	     -2.51631458	      8.17863380	     -1.38607803	      0.95550268	     -0.69134810	     -6.12062126	      4.26774712	    -13.90081853	     -9.36726297	      9.83505229	     -1.12150106	     -2.10652951	     -3.74056355	    -13.20496035	    -17.30632042	     21.17414424	     -9.72169607	    -13.09481632	      3.93288339	     -9.48618339
      0.07000000	      6.34502667	     -2.51406501	      8.18714886	     -1.38600385	      0.95548327	     -0.69139451	     -6.12040343	      4.26476954	    -13.89887629	     -9.36268127	      9.83629419	     -1.12196406	     -2.10396482	     -3.73537683	    -13.20513205	    -17.29958469	     21.17332872	     -9.72237147	    -13.10612607	      3.93926426	     -9.48482539
      0.08000000	      6.32970808	     -2.50298161	      8.20019890	     -1.38588576	      0.95546287	     -0.69144223	     -6.13887877	      4.25720343	    -13.89467294	     -9.31585290	      9.85210611	     -1.12612460	     -2.10504388	     -3.71636197	    -13.17574343	    -17.27871155	     21.16560469	     -9.72800059	    -13.09971484	      3.93179311	     -9.48821605
      0.09000000	      6.32015836	     -2.50240862	      8.20232811	     -1.38581434	      0.95544697	     -0.69145862	     -6.13799065	      4.25542359	    -13.89604714	     -9.31078021	      9.85318666	     -1.12662302	     -2.10108833	     -3.71395365	    -13.17491114	    -17.27435021	     21.16539295	     -9.72857637	    -13.11045012	      3.93547991	     -9.48841540
      0.10000000	      6.30361270	     -2.50031764	      8.21262371	     -1.38570687	      0.95542239	     -0.69148967	     -6.14588598	      4.25499049	    -13.91497414	     -9.27682398	      9.86324717	     -1.13074337	     -2.09142532	     -3.70747205	    -13.15602063	    -17.26985580	     21.16411337	     -9.73280053	    -13.10189107	      3.93656351	     -9.48501591
      0.11000000	      6.29434366	     -2.50066275	      8.21325605	     -1.38563617	      0.95540884	     -0.69149517	     -6.14463318	      4.25438397	    -13.91851787	     -9.27134642	      9.86429620	     -1.13132911	     -2.08671481	     -3.70649762	    -13.15437907	    -17.26727914	     21.16457336	     -9.73325843	    -13.11040941	      3.93959893	     -9.48559271
      0.12000000	      6.27643347	     -2.50410550	      8.22685938	     -1.38553187	      0.95538014	     -0.69152422	     -6.14930756	      4.25943627	    -13.94972330	     -9.23896708	      9.87170199	     -1.13522231	     -2.06911638	     -3.70771477	    -13.13581966	    -17.27091871	     21.16893707	     -9.73579913	    -13.09560092	      3.94598257	     -9.48012517
      0.13000000	      6.26826374	     -2.50479337	      8.22901921	     -1.38546976	      0.95537138	     -0.69153326	     -6.14789150	      4.25901713	    -13.95317563	     -9.23510469	      9.87211425	     -1.13565673	     -2.06380358	     -3.70697282	    -13.13482968	    -17.26875357	     21.17006539	     -9.73587373	    -13.10276676	      3.95023779	     -9.48085968
      0.14000000	      6.24160737	     -2.52115531	      8.26166774	     -1.38539712	      0.95532556	     -0.69157671	     -6.13336659	      4.27811520	    -14.00465266	     -9.21451408	      9.87016929	     -1.14248569	     -2.02157082	     -3.72392053	    -13.09721973	    -17.28813921	     21.19218210	     -9.73252962	    -13.07579325	      3.97239657	     -9.50513202
      0.15000000	      6.23508077	     -2.52036692	      8.26366739	     -1.38533494	      0.95532190	     -0.69160156	     -6.13439950	      4.27500597	    -14.00678062	     -9.21076155	      9.87040255	     -1.14249391	     -2.01769199	     -3.72019520	    -13.09897413	    -17.28633649	     21.19271396	     -9.73218177	    -13.07906042	      3.97881803	     -9.50118372
      0.16000000	      6.22300301	     -2.52126840	      8.26681058	     -1.38524848	      0.95531150	     -0.69161480	     -6.13725592	      4.27596088	    -14.02053625	     -9.19044559	      9.87064041	     -1.14132438	     -2.01117455	     -3.71907487	    -13.10282366	    -17.28204760	     21.19550836	     -9.72904828	    -13.06897887	      3.98084385	     -9.48235266
      0.17000000	      6.21916630	     -2.52120979	      8.26739214	     -1.38518135	      0.95530970	     -0.69161440	     -6.13862946	      4.27574689	    -14.02064386	     -9.19074692	      9.87057387	     -1.14127819	     -2.01092054	     -3.71894707	    -13.10304326	    -17.28177912	     21.19558528	     -9.72894833	    -13.07058432	      3.98166072	     -9.48195283
      0.18000000	      6.21185665	     -2.51953580	      8.27466696	     -1.38514331	      0.95530409	     -0.69165314	     -6.13788420	      4.27205197	    -14.02265749	     -9.18365797	      9.87015941	     -1.14062615	     -2.00653937	     -3.71499016	    -13.10664349	    -17.27666829	     21.19649785	     -9.72790015	    -13.07529617	      3.99032648	     -9.47568899
      0.19000000	      6.19987032	     -2.52044970	      8.27606121	     -1.38504750	      0.95529036	     -0.69166201	     -6.14312648	      4.27399499	    -14.03566139	     -9.15929681	      9.86672435	     -1.13636544	     -2.00490192	     -3.71488764	    -13.11129386	    -17.26855684	     21.19838189	     -9.72270909	    -13.05997193	      3.99215005	     -9.45497567
      0.20000000	      6.19585522	     -2.51957279	      8.27703694	     -1.38498500	      0.95528483	     -0.69166289	     -6.14372345	      4.27329090	    -14.03557590	     -9.15936653	      9.86660278	     -1.13626122	     -2.00627086	     -3.71546358	    -13.11142089	    -17.26894112	     21.19837457	     -9.72259302	    -13.06106254	      3.99333850	     -9.45451610
      0.21000000	      6.19076594	     -2.51693467	      8.28332590	     -1.38492410	      0.95527564	     -0.69169844	     -6.14525547	      4.26931086	    -14.03601482	     -9.15720374	      9.86647258	     -1.13574936	     -2.00722981	     -3.71219680	    -13.11366924	    -17.26693017	     21.19836740	     -9.72195831	    -13.06053114	      4.00147206	     -9.45000308
      0.22000000	      6.18694909	     -2.51577251	      8.28384877	     -1.38486190	      0.95526581	     -0.69169398	     -6.14573439	      4.26936089	    -14.03614072	     -9.15724994	      9.86649431	     -1.13571981	     -2.00881513	     -3.71258133	    -13.11369004	    -17.26742734	     21.19834195	     -9.72191982	    -13.06147724	      4.00223983	     -9.44962638
      0.23000000	      6.18249707	     -2.51228680	      8.28934678	     -1.38480335	      0.95525227	     -0.69173093	     -6.14716786	      4.26442249	    -14.03789089	     -9.15430492	      9.86748629	     -1.13566394	     -2.01046489	     -3.70801459	    -13.11549901	    -17.26466533	     21.19850214	     -9.72141220	    -13.05991630	      4.01050825	     -9.44391540
      0.24000000	      6.17926141	     -2.51080848	      8.28966799	     -1.38474612	      0.95523631	     -0.69172297	     -6.14747324	      4.26467251	    -14.03810803	     -9.15432276	      9.86760259	     -1.13568184	     -2.01175677	     -3.70801089	    -13.11545102	    -17.26497854	     21.19851550	     -9.72137550	    -13.06081103	      4.01128649	     -9.44346471
      0.25000000	      6.17491021	     -2.50611007	      8.29226063	     -1.38470096	      0.95521997	     -0.69175386	     -6.14709509	      4.25832803	    -14.03990468	     -9.15193238	      9.86935129	     -1.13616844	     -2.01228415	     -3.70092722	    -13.11555987	    -17.26206731	     21.19929757	     -9.72087594	    -13.06140444	      4.01877606	     -9.43758207
      0.26000000	      6.17248427	     -2.50438926	      8.29250506	     -1.38465027	      0.95520439	     -0.69174312	     -6.14660355	      4.25840920	    -14.03997958	     -9.15181496	      9.86946865	     -1.13621431	     -2.01365281	     -3.70087628	    -13.11539839	    -17.26250371	     21.19935414	     -9.72085207	    -13.06221638	      4.01944711	     -9.43719024
      0.27000000	      6.15892547	     -2.48113029	      8.27987273	     -1.38461058	      0.95518372	     -0.69175304	     -6.13082182	      4.22647643	    -14.04151523	     -9.16244628	      9.88119105	     -1.14129269	     -2.01663460	     -3.66600789	    -13.10120120	    -17.24224577	     21.20590136	     -9.71928629	    -13.05466004	      3.99764711	     -9.40812729
      0.28000000	      6.15624163	     -2.47876003	      8.28172243	     -1.38458193	      0.95517299	     -0.69176206	     -6.12798977	      4.22378155	    -14.04011495	     -9.16366773	      9.88211985	     -1.14167658	     -2.01660015	     -3.66307080	    -13.10290664	    -17.24004532	     21.20470750	     -9.71985587	    -13.05737212	      4.00327644	     -9.40886801
      0.29000000	      6.15441740	     -2.47746866	      8.28182208	     -1.38454154	      0.95516858	     -0.69174825	     -6.12753764	      4.22377842	    -14.03998528	     -9.16377295	      9.88215522	     -1.14170695	     -2.01747541	     -3.66321878	    -13.10296154	    -17.24029445	     21.20459435	     -9.71991120	    -13.05806810	      4.00416034	     -9.40890302
